<?xml version="1.0" encoding="UTF-8" standalone="no"?>
<svg width="512" height="512" viewBox="0 0 512 512" xmlns="http://www.w3.org/2000/svg" xmlns:xlink="http://www.w3.org/1999/xlink">
<!-- created via a Python script - do not edit this SVG file directly -->
<path d="M 48.0 98.0 L 224.0 98.0 A 16.0 16.0 0 0 1 240.0 114.0 L 240.0 418.0 A 16.0 16.0 0 0 1 224.0 434.0 L 48.0 434.0 A 16.0 16.0 0 0 1 32.0 418.0 L 32.0 114.0 A 16.0 16.0 0 0 1 48.0 98.0 z" fill="#b0b0b0" />
<path d="M 272.0 98.0 L 480.0 98.0 A 16.0 16.0 0 0 1 496.0 114.0 L 496.0 258.0 A 16.0 16.0 0 0 1 480.0 274.0 L 272.0 274.0 A 16.0 16.0 0 0 1 256.0 258.0 L 256.0 114.0 A 16.0 16.0 0 0 1 272.0 98.0 z" fill="#b0b0b0" />
<path d="M 272.0 290.0 L 352.0 290.0 A 16.0 16.0 0 0 1 368.0 306.0 L 368.0 418.0 A 16.0 16.0 0 0 1 352.0 434.0 L 272.0 434.0 A 16.0 16.0 0 0 1 256.0 418.0 L 256.0 306.0 A 16.0 16.0 0 0 1 272.0 290.0 z" fill="#b0b0b0" />
<path d="M 400.0 290.0 L 480.0 290.0 A 16.0 16.0 0 0 1 496.0 306.0 L 496.0 418.0 A 16.0 16.0 0 0 1 480.0 434.0 L 400.0 434.0 A 16.0 16.0 0 0 1 384.0 418.0 L 384.0 306.0 A 16.0 16.0 0 0 1 400.0 290.0 z" fill="#b0b0b0" />
<path d="M 40.0 90.0 L 216.0 90.0 A 16.0 16.0 0 0 1 232.0 106.0 L 232.0 410.0 A 16.0 16.0 0 0 1 216.0 426.0 L 40.0 426.0 A 16.0 16.0 0 0 1 24.0 410.0 L 24.0 106.0 A 16.0 16.0 0 0 1 40.0 90.0 z" fill="#268bd2" />
<path d="M 264.0 90.0 L 472.0 90.0 A 16.0 16.0 0 0 1 488.0 106.0 L 488.0 250.0 A 16.0 16.0 0 0 1 472.0 266.0 L 264.0 266.0 A 16.0 16.0 0 0 1 248.0 250.0 L 248.0 106.0 A 16.0 16.0 0 0 1 264.0 90.0 z" fill="#dc322f" />
<path d="M 264.0 282.0 L 344.0 282.0 A 16.0 16.0 0 0 1 360.0 298.0 L 360.0 410.0 A 16.0 16.0 0 0 1 344.0 426.0 L 264.0 426.0 A 16.0 16.0 0 0 1 248.0 410.0 L 248.0 298.0 A 16.0 16.0 0 0 1 264.0 282.0 z" fill="#859900" />
<path d="M 392.0 282.0 L 472.0 282.0 A 16.0 16.0 0 0 1 488.0 298.0 L 488.0 410.0 A 16.0 16.0 0 0 1 472.0 426.0 L 392.0 426.0 A 16.0 16.0 0 0 1 376.0 410.0 L 376.0 298.0 A 16.0 16.0 0 0 1 392.0 282.0 z" fill="#859900" />
<path d="M 308.0 160.0 L 281.1299423149112 133.1299423149112 A 8.0 8.0 0 0 1 292.44365081389594 121.81623381592644 L 326.38477631085027 155.7573593128807 A 6.0 6.0 0 0 1 326.38477631085027 164.2426406871193 L 292.44365081389594 198.18376618407356 A 8.0 8.0 0 0 1 281.1299423149112 186.8700576850888 L 308.0 160.0 z" fill="#a52523" />
<path d="M 372.0 160.0 L 345.1299423149112 133.1299423149112 A 8.0 8.0 0 0 1 356.44365081389594 121.81623381592644 L 390.38477631085027 155.7573593128807 A 6.0 6.0 0 0 1 390.38477631085027 164.2426406871193 L 356.44365081389594 198.18376618407356 A 8.0 8.0 0 0 1 345.1299423149112 186.8700576850888 L 372.0 160.0 z" fill="#a52523" />
<path d="M 436.0 160.0 L 409.1299423149112 133.1299423149112 A 8.0 8.0 0 0 1 420.44365081389594 121.81623381592644 L 454.38477631085027 155.7573593128807 A 6.0 6.0 0 0 1 454.38477631085027 164.2426406871193 L 420.44365081389594 198.18376618407356 A 8.0 8.0 0 0 1 409.1299423149112 186.8700576850888 L 436.0 160.0 z" fill="#a52523" />
<path d="M 62.0 152.0 L 192.0 152.0 A 8.0 8.0 0 0 1 192.0 168.0 L 62.0 168.0 A 8.0 8.0 0 0 1 62.0 152.0 z" fill="#1c689d" />
<path d="M 62.0 216.0 L 192.0 216.0 A 8.0 8.0 0 0 1 192.0 232.0 L 62.0 232.0 A 8.0 8.0 0 0 1 62.0 216.0 z" fill="#1c689d" />
<path d="M 62.0 280.0 L 192.0 280.0 A 8.0 8.0 0 0 1 192.0 296.0 L 62.0 296.0 A 8.0 8.0 0 0 1 62.0 280.0 z" fill="#1c689d" />
<path d="M 62.0 344.0 L 160.0 344.0 A 8.0 8.0 0 0 1 160.0 360.0 L 62.0 360.0 A 8.0 8.0 0 0 1 62.0 344.0 z" fill="#1c689d" />
</svg>